<svg width="40" height="40" viewBox="0 0 40 40" fill="none" xmlns="http://www.w3.org/2000/svg">
<rect width="40" height="40" rx="5" fill="#2e3038" fill-opacity="0.95"/>
<path d="M17.7794 19.4744H14.1342C13.9403 19.176 13.6618 18.9279 13.3265 18.7548C12.9911 18.5816 12.6106 18.4894 12.2227 18.4873C11.6332 18.4873 11.0678 18.6953 10.651 19.0655C10.2342 19.4358 10 19.9379 10 20.4615C10 20.9851 10.2342 21.4872 10.651 21.8574C11.0678 22.2277 11.6332 22.4356 12.2227 22.4356C12.6106 22.4336 12.9911 22.3414 13.3265 22.1682C13.6618 21.995 13.9403 21.7469 14.1342 21.4486H17.7794C18.0742 21.4486 18.3569 21.3446 18.5653 21.1595C18.7737 20.9743 18.8908 20.7233 18.8908 20.4615C18.8908 20.1997 18.7737 19.9486 18.5653 19.7635C18.3569 19.5784 18.0742 19.4744 17.7794 19.4744Z" fill="white"/>
<path d="M20.5577 24.7355C21.4024 24.3023 22.1038 23.6792 22.5915 22.929C23.0791 22.1787 23.3358 21.3277 23.3358 20.4614C23.3358 19.5951 23.0791 18.7441 22.5915 17.9938C22.1038 17.2436 21.4024 16.6205 20.5577 16.1874C20.3037 16.0694 20.0082 16.0431 19.7329 16.114C19.4576 16.1849 19.2239 16.3476 19.0804 16.568C18.937 16.7884 18.8949 17.0496 18.9631 17.2968C19.0313 17.5441 19.2045 17.7584 19.4464 17.895C19.9542 18.1547 20.376 18.5286 20.6693 18.9791C20.9627 19.4297 21.1171 19.941 21.1171 20.4614C21.1171 20.9819 20.9627 21.4931 20.6693 21.9437C20.376 22.3942 19.9542 22.7682 19.4464 23.0278C19.3154 23.0931 19.2007 23.1812 19.1092 23.2869C19.0177 23.3926 18.9512 23.5137 18.9138 23.6428C18.8764 23.772 18.8689 23.9065 18.8917 24.0383C18.9144 24.1701 18.967 24.2965 19.0463 24.4097C19.1432 24.5589 19.2825 24.683 19.4502 24.7695C19.6178 24.8561 19.8081 24.9022 20.002 24.9033C20.2008 24.8926 20.3928 24.8346 20.5577 24.7355Z" fill="white"/>
<path d="M21.5914 27.5979C23.1127 26.9579 24.3981 25.9474 25.2983 24.6841C26.1985 23.4207 26.6764 21.9564 26.6764 20.4613C26.6764 18.9662 26.1985 17.5018 25.2983 16.2385C24.3981 14.9751 23.1127 13.9647 21.5914 13.3247C21.3246 13.2121 21.0184 13.1983 20.7402 13.2862C20.462 13.3742 20.2344 13.5567 20.1077 13.7936C19.981 14.0305 19.9654 14.3024 20.0644 14.5496C20.1634 14.7967 20.3688 14.9988 20.6356 15.1113C21.775 15.5919 22.7377 16.3496 23.4117 17.2966C24.0857 18.2436 24.4435 19.3409 24.4435 20.4613C24.4435 21.5816 24.0857 22.679 23.4117 23.626C22.7377 24.5729 21.775 25.3307 20.6356 25.8112C20.4032 25.9052 20.2144 26.0674 20.1008 26.2704C19.9872 26.4735 19.9558 26.7052 20.0119 26.9264C20.0679 27.1476 20.2081 27.345 20.4087 27.4852C20.6093 27.6255 20.8582 27.7001 21.1135 27.6966C21.2787 27.6932 21.4414 27.6596 21.5914 27.5979Z" fill="white"/>
<path d="M22.6693 10.5117C22.5345 10.4516 22.3872 10.4166 22.2366 10.4087C22.086 10.4008 21.9352 10.4202 21.7933 10.4658C21.6514 10.5114 21.5214 10.5821 21.4113 10.6737C21.3012 10.7653 21.2133 10.8759 21.1528 10.9987C21.0924 11.1215 21.0608 11.2539 21.0598 11.3879C21.0589 11.5219 21.0887 11.6547 21.1474 11.7781C21.2061 11.9016 21.2924 12.0131 21.4013 12.1059C21.5101 12.1988 21.639 12.2709 21.7802 12.3181C23.5648 13.0091 25.0836 14.1477 26.1502 15.5943C27.2169 17.0408 27.785 18.7323 27.785 20.4615C27.785 22.1906 27.2169 23.8822 26.1502 25.3287C25.0836 26.7752 23.5648 27.9138 21.7802 28.6049C21.6457 28.6564 21.5239 28.731 21.4219 28.8245C21.32 28.918 21.2398 29.0285 21.1861 29.1496C21.1324 29.2707 21.1062 29.4 21.109 29.5301C21.1117 29.6603 21.1435 29.7886 21.2023 29.9078C21.2891 30.0844 21.4321 30.2345 21.6138 30.3398C21.7955 30.445 22.0079 30.5007 22.2248 30.5001C22.3783 30.498 22.5296 30.4678 22.6693 30.4112C24.8483 29.5657 26.7024 28.1741 28.0045 26.4069C29.3065 24.6396 30 22.5735 30 20.4615C30 18.3495 29.3065 16.2833 28.0045 14.5161C26.7024 12.7488 24.8483 11.3572 22.6693 10.5117Z" fill="white"/>
</svg>
